<svg width="21" height="20" viewBox="0 0 21 20" fill="none" xmlns="http://www.w3.org/2000/svg">
<path d="M4.84017 10.8333H14.1485L10.0818 14.9C9.75684 15.225 9.75684 15.7583 10.0818 16.0833C10.4068 16.4083 10.9318 16.4083 11.2568 16.0833L16.7485 10.5917C17.0735 10.2667 17.0735 9.74165 16.7485 9.41665L11.2652 3.91665C11.1095 3.76061 10.8981 3.67291 10.6777 3.67291C10.4572 3.67291 10.2459 3.76061 10.0902 3.91665C9.76517 4.24165 9.76517 4.76665 10.0902 5.09165L14.1485 9.16665H4.84017C4.38184 9.16665 4.00684 9.54165 4.00684 9.99998C4.00684 10.4583 4.38184 10.8333 4.84017 10.8333Z" fill="black"/>
</svg>
